<svg xmlns="http://www.w3.org/2000/svg" xmlns:xlink="http://www.w3.org/1999/xlink" width="1080" zoomAndPan="magnify" viewBox="0 0 810 809.999993" height="1080" preserveAspectRatio="xMidYMid meet" version="1.2"><g id="ee9c0d2579"><path style=" stroke:none;fill-rule:evenodd;fill:#000000;fill-opacity:1;" d="M 194.636719 254.796875 C 194.636719 255.570312 198.421875 262.273438 216.214844 293.019531 C 220.164062 299.84375 230.007812 316.925781 238.089844 330.972656 C 246.171875 345.023438 254.4375 359.3125 256.457031 362.722656 C 258.480469 366.136719 264.570312 376.644531 269.996094 386.078125 C 281.742188 406.507812 307.019531 450.324219 327.46875 485.703125 C 335.589844 499.753906 342.800781 512.234375 343.496094 513.4375 C 344.191406 514.644531 347.234375 519.898438 350.261719 525.117188 C 353.289062 530.335938 360.109375 542.160156 365.421875 551.390625 C 370.734375 560.625 375.660156 569.164062 376.363281 570.367188 C 377.066406 571.574219 384.554688 584.546875 393 599.199219 C 401.445312 613.851562 408.761719 625.835938 409.257812 625.835938 C 410.285156 625.835938 432.488281 587.796875 432.539062 585.949219 C 432.558594 585.289062 429.660156 579.707031 426.097656 573.542969 C 422.539062 567.382812 413.480469 551.664062 405.96875 538.621094 C 398.453125 525.574219 391.597656 513.75 390.726562 512.34375 C 389.8125 510.863281 388.921875 509.367188 388.050781 507.855469 C 384.730469 502.003906 358.050781 455.730469 344.554688 432.425781 C 335.957031 417.570312 328.699219 404.925781 328.433594 404.324219 C 328.164062 403.722656 326.726562 401.257812 325.238281 398.851562 C 323.75 396.441406 316.703125 384.289062 309.578125 371.847656 C 302.457031 359.402344 296.046875 348.234375 295.335938 347.03125 C 294.628906 345.828125 288.082031 334.496094 280.792969 321.851562 C 273.503906 309.207031 267.230469 298.546875 266.851562 298.167969 C 266.472656 297.785156 266.164062 297.042969 266.164062 296.515625 C 266.164062 295.738281 270.695312 295.59375 289.949219 295.746094 L 313.734375 295.941406 L 321.023438 308.714844 C 325.03125 315.738281 329.878906 324.113281 331.796875 327.324219 C 333.714844 330.535156 336.117188 334.640625 337.136719 336.449219 C 340.792969 342.9375 368.917969 391.683594 372.507812 397.757812 C 374.523438 401.167969 381.925781 413.976562 388.953125 426.222656 C 395.980469 438.464844 408.378906 459.976562 416.503906 474.027344 C 425.625 489.800781 434.730469 505.582031 443.820312 521.371094 C 450.71875 533.359375 456.652344 543.210938 457.007812 543.265625 C 457.359375 543.320312 459.761719 539.75 462.34375 535.335938 C 474.65625 514.273438 480.742188 503.539062 480.742188 502.894531 C 480.742188 502.507812 479.707031 500.453125 478.441406 498.328125 C 477.175781 496.203125 469.414062 482.804688 461.195312 468.554688 C 452.976562 454.300781 438.953125 429.996094 430.039062 414.542969 C 419.59375 396.417969 409.144531 378.292969 398.6875 360.167969 C 390.359375 345.71875 381.324219 330.117188 378.605469 325.5 C 370.957031 312.507812 361.777344 296.386719 361.777344 295.949219 C 361.777344 295.734375 372.484375 295.640625 385.574219 295.746094 L 409.371094 295.941406 L 418.878906 312.363281 C 424.109375 321.394531 434.632812 339.621094 442.269531 352.871094 C 449.902344 366.117188 457.199219 378.761719 458.480469 380.96875 C 459.765625 383.175781 466 394.015625 472.339844 405.054688 C 478.675781 416.09375 486.078125 428.902344 488.785156 433.519531 C 494.246094 442.828125 495.902344 445.695312 500.933594 454.519531 C 502.828125 457.835938 504.722656 460.4375 505.148438 460.296875 C 505.574219 460.15625 512.164062 449.1875 519.789062 435.925781 C 544.753906 392.515625 555.292969 374.257812 563.929688 359.4375 C 570.988281 347.332031 587.550781 318.632812 593.566406 308.089844 C 594.398438 306.625 597.46875 301.324219 600.386719 296.304688 C 614.921875 271.289062 623.796875 255.5625 623.796875 254.808594 C 623.796875 253.824219 482.535156 253.578125 481.925781 254.5625 C 481.597656 255.09375 482.402344 256.691406 486.582031 263.828125 C 487.285156 265.03125 491.640625 272.585938 496.253906 280.613281 L 504.640625 295.210938 L 528.457031 295.402344 C 543.839844 295.527344 552.269531 295.855469 552.269531 296.332031 C 552.269531 296.734375 551.476562 298.292969 550.507812 299.789062 C 549.539062 301.285156 543.835938 311.046875 537.835938 321.484375 C 505.359375 377.992188 504.097656 380.082031 504.097656 377.355469 C 504.097656 376.972656 502.175781 373.441406 499.820312 369.507812 C 495.773438 362.742188 490.089844 352.890625 454.640625 291.195312 C 446.449219 276.945312 438.21875 262.742188 436.34375 259.628906 L 432.941406 253.972656 L 313.789062 253.972656 C 225.683594 253.972656 194.636719 254.1875 194.636719 254.796875 "/></g></svg>